<svg width="512" height="512" xmlns="http://www.w3.org/2000/svg">

 <g>
  <title>background</title>
  <rect fill="none" id="canvas_background" height="402" width="582" y="-1" x="-1"/>
 </g>
 <g>
  <title>Layer 1</title>
  <path fill="#0093ee" id="svg_1" d="m376.59,401.94l-313,0l0,-311.35a66.75,66.75 0 0 1 66.67,-66.67l171.15,0a66.75,66.75 0 0 1 66.68,66.67l0,12.29a8.51,8.51 0 1 0 17,0l0,-12.29a83.78,83.78 0 0 0 -83.68,-83.68l-171.15,0a83.79,83.79 0 0 0 -83.69,83.68l0,330.82a83.79,83.79 0 0 0 83.69,83.68l171.15,0a83.78,83.78 0 0 0 83.69,-83.68l0,-11a8.5,8.5 0 0 0 -8.51,-8.47zm-8.5,19.47a66.75,66.75 0 0 1 -66.68,66.67l-171.15,0a66.75,66.75 0 0 1 -66.67,-66.67l0,-2.41l304.5,0l0,2.41z"/>
  <path fill="#ffffff" id="svg_2" d="m190.45,453.61l50.78,0a8.51,8.51 0 1 0 0,-17l-50.78,0a8.51,8.51 0 1 0 0,17z"/>
  <path fill="#0093ee" id="svg_3" d="m342.159422,198.34a35.56,35.56 0 1 0 35.55,-35.55a35.6,35.6 0 0 0 -35.55,35.55zm54.1,0a18.55,18.55 0 1 1 -18.55,-18.53a18.58,18.58 0 0 1 18.58,18.53l-0.03,0z"/>
  <path fill="#0093ee" id="svg_4" d="m285.441156,217.791156c0,37.35 48.57,105.52 71.39,135.49l-109.83,0a64.16,64.16 0 0 1 -64.08,-64.09l0,-46.17c10.93,-13.82 55.61,-72.15 55.61,-102.65a64.12,64.12 0 0 0 -128.23,0c0,30.5 44.67,88.83 55.6,102.65l0,46.17a81.2,81.2 0 0 0 81.1,81.1l127.27,0a8.34,8.34 0 0 0 3.49,-0.79a6.89,6.89 0 0 0 0.84,-0.57a8.28,8.28 0 0 0 2,-1.55c0.09,-0.11 0.23,-0.15 0.32,-0.25c8.41,-10.44 82.22,-103.3 82.22,-149.34a88.84,88.84 0 0 0 -177.67,0l-0.03,0zm-111.03,-124.51a47.15,47.15 0 0 1 47.1,47.09c0,19.85 -29.66,62.95 -47.1,85.86c-17.43,-22.91 -47.09,-66 -47.09,-85.86a47.14,47.14 0 0 1 47.09,-47.09zm271.68,124.51c0,30.88 -47,98 -71.82,130.24c-24.87,-32.2 -71.81,-99.36 -71.81,-130.24a71.82,71.82 0 0 1 143.63,0z"/>
  <path fill="#ffffff" id="svg_5" d="m190,127.62a13.23,13.23 0 1 0 -13.23,13.23a13.23,13.23 0 0 0 13.23,-13.23z"/>
 </g>
</svg>