<svg width="96" height="96" xmlns="http://www.w3.org/2000/svg">
 <title/>

 <g>
  <title>background</title>
  <rect fill="none" id="canvas_background" height="402" width="582" y="-1" x="-1"/>
 </g>
 <g>
  <title>Layer 1</title>
  <path fill="#0093ee" id="svg_1" d="m48,0a48,48 0 0 0 0,96a6,6 0 0 0 0,-12a36,36 0 1 1 36,-36l0,18a6,6 0 0 1 -12,0l0,-18a24,24 0 1 0 -24,24a23.7365,23.7365 0 0 0 12.2549,-3.4783a17.9586,17.9586 0 0 0 35.7451,-2.5217l0,-18a48.0474,48.0474 0 0 0 -48,-48zm0,60a12,12 0 1 1 12,-12a12.0081,12.0081 0 0 1 -12,12z"/>
 </g>
</svg>