<svg width="512" height="512" xmlns="http://www.w3.org/2000/svg">

 <g>
  <title>background</title>
  <rect fill="none" id="canvas_background" height="402" width="582" y="-1" x="-1"/>
 </g>
 <g>
  <title>Layer 1</title>
  <path fill="#0096f5" id="svg_1" d="m377.8,100.1c-44.9,-13.3 -59,11.9 -121.8,11.9s-76.9,-25.3 -121.8,-11.9c-44.9,13.3 -67.3,60.4 -88.5,148.8c-21.2,88.5 -17.3,152.4 7.7,164.3c25,11.9 53.2,-15.4 80.1,-49.1c21.8,-26.4 32.7,-28.1 122.5,-28.1c89.7,0 99,0.7 122.5,28.1c26.9,33.7 55.1,61 80.1,49.1c25,-11.9 28.9,-75.8 7.7,-164.3c-21.2,-88.4 -43.7,-135.4 -88.5,-148.8zm-249.6,163.6c-21.7,0 -39.3,-17.7 -39.3,-39.6c0,-21.8 17.6,-39.6 39.3,-39.6c21.7,0 39.3,17.8 39.3,39.6s-17.6,39.6 -39.3,39.6zm181.5,-20.1c-10.6,0 -19.3,-8.7 -19.3,-19.4c0,-10.7 8.7,-19.4 19.3,-19.4c10.7,0 19.4,8.7 19.4,19.4c-0.1,10.7 -8.7,19.4 -19.4,19.4zm42.2,42.4c-10.6,0 -19.3,-8.7 -19.3,-19.4c0,-10.8 8.7,-19.4 19.3,-19.4c10.7,0 19.4,8.7 19.4,19.4c0,10.8 -8.7,19.4 -19.4,19.4zm0,-84.9c-10.6,0 -19.3,-8.7 -19.3,-19.4c0,-10.7 8.7,-19.4 19.3,-19.4c10.7,0 19.4,8.7 19.4,19.4c0,10.7 -8.7,19.4 -19.4,19.4zm42.3,42.5c-10.7,0 -19.3,-8.7 -19.3,-19.4c0,-10.7 8.7,-19.4 19.3,-19.4c10.6,0 19.3,8.7 19.3,19.4c0,10.7 -8.6,19.4 -19.3,19.4z"/>
 </g>
</svg>