<svg width="64" height="64" xmlns="http://www.w3.org/2000/svg">

 <g>
  <title>background</title>
  <rect fill="none" id="canvas_background" height="402" width="582" y="-1" x="-1"/>
 </g>
 <g>
  <title>Layer 1</title>
  <path fill="#0093e9" id="svg_1" d="m20.7,56l22.7,0c7,0 12.7,-5.8 12.7,-12.9l0,-22.2c-0.1,-7.1 -5.8,-12.9 -12.8,-12.9l-22.6,0c-7,0 -12.7,5.8 -12.7,12.9l0,22.2c0,7.1 5.7,12.9 12.7,12.9zm25.3,-40c1.6,0 2.9,1.3 2.9,3c0,1.7 -1.3,3 -2.9,3s-2.9,-1.3 -2.9,-3c0,-1.7 1.3,-3 2.9,-3zm-14,4c6.5,0 11.7,5.4 11.7,12s-5.2,12 -11.7,12s-11.7,-5.4 -11.7,-12s5.2,-12 11.7,-12z" class="st0"/>
 </g>
</svg>