<svg width="32" height="32" xmlns="http://www.w3.org/2000/svg">
 <title/>

 <g>
  <title>background</title>
  <rect fill="none" id="canvas_background" height="402" width="582" y="-1" x="-1"/>
 </g>
 <g>
  <title>Layer 1</title>
  <path fill="#0096f5" id="svg_1" d="m21.59,22.43a11.84,11.84 0 0 1 -5,4.28l7.74,0l-2.15,-4.28l-0.59,0z"/>
  <path fill="#0096f5" id="svg_2" d="m22.43,16a10.72,10.72 0 1 0 -10.72,10.71a10.71,10.71 0 0 0 10.72,-10.71zm-18.38,-2a1.61,1.61 0 1 1 1.61,1.6a1.61,1.61 0 0 1 -1.61,-1.6zm3.95,8.7a1.61,1.61 0 1 1 1.61,-1.6a1.6,1.6 0 0 1 -1.61,1.6zm3.75,-5.09a1.61,1.61 0 1 1 1.57,-1.61a1.61,1.61 0 0 1 -1.61,1.61l0.04,0zm0,-6.43a1.61,1.61 0 1 1 1.61,-1.61a1.61,1.61 0 0 1 -1.65,1.61l0.04,0zm3.75,11.52a1.61,1.61 0 1 1 1.61,-1.6a1.6,1.6 0 0 1 -1.65,1.6l0.04,0zm-1.44,-18.65a1.61,1.61 0 1 1 5.32,9.95a1.6,1.6 0 0 1 -1.61,1.57l-3.71,-11.52z"/>
  <polygon fill="#0096f5" id="svg_3" points="28.86 22.43 23.42 22.43 25.56 26.71 31 26.71 28.86 22.43"/>
 </g>
</svg>